<svg xmlns="http://www.w3.org/2000/svg" version="1.1" xmlns:xlink="http://www.w3.org/1999/xlink" width="1000" height="1000"><metadata><rdf:RDF xmlns:rdf="http://www.w3.org/1999/02/22-rdf-syntax-ns#" xmlns:dc="http://purl.org/dc/elements/1.1/"><rdf:Description><dc:creator>RealFaviconGenerator</dc:creator><dc:source>https://realfavicongenerator.net</dc:source></rdf:Description></rdf:RDF></metadata><g clip-path="url(#SvgjsClipPath1053)"><rect width="1000" height="1000" fill="#f2fafd"></rect><g transform="matrix(2.5380710659898478,0,0,2.5380710659898478,0,85.02538071065987)"><svg xmlns="http://www.w3.org/2000/svg" width="394" height="327" viewBox="0 0 394 327"><g id="Group">
        <path id="Path" fill="none" stroke="#000000" stroke-width="10" stroke-linecap="round" d="M 225.207336 94.506668 L 222.879562 94.506668 C 208.825073 94.506668 196.879745 93.30484 183.448196 91.291153 C 171.859467 89.554352 151.981613 85.667923 140.779694 89.845291 C 127.777573 94.693283 124.053032 94.706985 112.306107 88.135849 C 103.92923 83.451599 84.544334 77.388046 75.296432 82.772125 C 62.1604 90.414597 58.885273 98.354675 58.931149 112.073563 C 58.93354 113.13324 51.16494 120.104935 49.927334 121.796906 C 42.931728 131.364777 33.89526 140.077316 25 148"></path>
        <path id="path1" fill="none" stroke="#000000" stroke-width="10" stroke-linecap="round" d="M 180.923035 252.124039 L 182.103699 253.393616 C 189.96582 261.83667 209.985352 262.060974 219.944214 262.194885 C 226.758423 262.28653 232.90271 262.261261 239.285278 259.844604"></path>
        <path id="path2" fill="none" stroke="#000000" stroke-width="10" stroke-linecap="round" d="M 160.628113 261.647827 L 161.56012 263.030609 C 168.054443 272.668274 190.54187 274.894379 200.57196 276.520935 C 218.759827 279.470459 240.587036 279.194946 258.135071 272.968933"></path>
        <path id="eye" fill="#000000" fill-rule="evenodd" stroke="none" d="M 83 100.5 C 83 98.014725 80.985283 96 78.5 96 C 76.014717 96 74 98.014725 74 100.5 C 74 102.985275 76.014717 105 78.5 105 C 80.985283 105 83 102.985275 83 100.5 Z"></path>
        <path id="path3" fill="none" stroke="#000000" stroke-width="10" stroke-linecap="round" d="M 150.095398 275.472839 L 150.661438 276.978943 C 155.884766 290.894348 182.437561 294.132813 194.18158 295.656036 C 216.19635 298.511932 243.109131 299.366455 265.17157 296.092224 C 271.064453 295.217651 276.686584 293.405579 281.915344 290.594574"></path>
        <path id="path4" fill="none" stroke="#000000" stroke-width="10" stroke-linecap="round" d="M 35.105347 139.982544 L 36.714539 139.456924 C 42.850159 137.453674 48.507568 131.578705 55.202026 129.345947 C 66.019165 125.738632 70.385376 121.836838 79.338745 131.734146 C 91.548706 145.228241 102.212646 156.052261 117.91217 165.471176 C 135.182861 175.82692 157.8573 180.809723 176.932983 187.078873 C 196.361755 193.462723 212.684448 184.747269 230.626038 179.375656 C 252.606384 172.822998 269.414978 156.944199 292.239319 152.328064 C 300.218811 150.713959 312.400208 145.59198 319.044067 141.005905 C 331.53772 132.378433 337.136963 125.217484 353.104248 125.046722 C 360.720398 124.965546 366.333679 121.165192 368.794861 114.912643 C 372.526123 105.424469 349.969543 106.109528 346.0625 105.983368 C 320.179626 105.146637 293.041992 111.102493 267.236389 107.744461 C 259.634277 106.75531 253.500061 100.642456 245.513794 98.864136 C 237.393799 97.056335 230.090393 94.133057 221.594055 94.008789"></path>
        <path id="path5" fill="none" stroke="#000000" stroke-width="10" stroke-linecap="round" d="M 175.171509 192.498276 L 175.171509 194.843353 C 175.171509 203.228851 177.91925 212.614044 169.017639 215.338425 C 156.918579 219.039871 148.062012 218.406464 135.661926 219.39238 C 120.272949 220.615707 103.89325 227.019348 88.516479 226.126343 C 81.935486 225.74472 75.528931 223.934845 85.957153 227.853638 C 97.184387 232.072739 111.193237 222.391312 121.717651 226.50473 C 128.787659 229.264008 111.88385 238.184021 110.836365 238.759644 C 108.559692 240.010498 119.782593 231.673126 122.741699 230.016937 C 131.489441 225.118286 136.372437 222.97966 134.661621 233.088318 C 134.551453 233.740036 133.719177 238.966919 134.344666 239.327545 C 135.8927 240.220123 134.394409 235.754013 134.401367 233.967117 C 134.482544 213.063019 164.351746 221.903809 177.170898 219.504211 C 181.941406 218.611221 181.465637 202.145065 181.291199 198.717529 C 181.113037 195.203079 180.133972 191.963074 180.021423 188.41864"></path>
        <path id="path6" fill="none" stroke="#000000" stroke-width="10" stroke-linecap="round" d="M 199.932373 191.042694 L 201.768005 191.445007 C 217.125488 194.810455 217.535889 225.484299 210.84436 234.891022 C 208.207642 238.598633 198.153625 251.020432 199.267639 255.819641 C 200.958496 263.090851 210.213562 250.071991 210.7453 248.631012 C 216.298035 233.57869 224.030396 220.81929 216.943787 205.47197 C 214.241516 199.623749 212.588928 193.640137 209.341003 187.994095"></path>
    </g></svg></g></g><defs><clipPath id="SvgjsClipPath1053"><rect width="1000" height="1000" x="0" y="0" rx="350" ry="350"></rect></clipPath></defs></svg>