<?xml version="1.0" encoding="UTF-8"?>
<!-- Generated by Pixelmator Pro 3.8 -->
<svg width="600" height="400" viewBox="0 0 600 400" xmlns="http://www.w3.org/2000/svg">
    <path id="Path" fill="none" stroke="#000000" stroke-width="20" stroke-linecap="round" d="M 85.257813 117.03125 L 85.257813 127.398438 C 85.257813 193.330643 84.318298 259.222534 83.914063 325.15625"/>
    <path id="path1" fill="none" stroke="#000000" stroke-width="20" stroke-linecap="round" d="M 96.1875 130.476563 L 96.1875 124.15625 C 96.1875 98.647064 147.711258 69.881195 169.570633 65.942932 C 203.937012 59.751617 303.334808 67.064697 260.954773 125.582672 C 234.185104 162.54631 177.993835 200.749969 130.359146 193.357361 C 117.51931 191.364624 105.402664 191.513397 92.460938 192.320313"/>
    <path id="path2" fill="none" stroke="#000000" stroke-width="20" stroke-linecap="round" d="M 218.851563 257.851563 L 227.203125 257.851563 C 239.375839 257.851563 298.819977 263.773315 298.559082 243.888718 C 298.387695 230.809692 250.623016 225.950439 241.067627 225.582184 C 199.196732 223.968658 171.191315 262.860565 206.190308 294.498688 C 233.418182 319.111908 275.587189 308.24762 307.015625 301.539063"/>
    <path id="path3" fill="none" stroke="#000000" stroke-width="20" stroke-linecap="round" d="M 371.539063 256.84375 L 378.109375 256.84375 C 401.13501 256.84375 436.567719 244.014725 422.495453 213.16124 C 399.024445 161.703842 347.045837 202.221024 339.407806 242.460342 C 329.704102 293.582214 350.345764 303.675293 397.52124 313.310852 C 411.350342 316.135437 423.283295 313.916077 437.140625 311.820313"/>
    <path id="path4" fill="none" stroke="#000000" stroke-width="20" stroke-linecap="round" d="M 485.625 187.710938 L 485.625 196.554688 C 485.625 267.256805 480.157654 323.020691 464.195313 390.75"/>
    <path id="path5" fill="none" stroke="#000000" stroke-width="20" stroke-linecap="round" d="M 488.289063 205.117188 L 494.859375 202.890625 C 519.806519 194.44072 565.327637 214.342957 549.141541 246.224213 C 542.556763 259.193054 498.820923 266.667969 483.351563 273.257813"/>
</svg>
